<?xml version="1.0" encoding="UTF-8"?>
<svg version="1.1" xmlns="http://www.w3.org/2000/svg" width="850" height="293">
<path d="M0 0 C0.75932146 -0.00412327 1.51864293 -0.00824653 2.30097413 -0.01249474 C4.82921797 -0.02137985 7.35641134 -0.00181382 9.88458252 0.01777649 C11.70338567 0.0172674 13.52218905 0.01500983 15.34098816 0.01113892 C20.26845216 0.00572804 25.19553897 0.0251068 30.1229353 0.04923987 C35.27982086 0.07055401 40.43670532 0.06994174 45.59362793 0.07192993 C54.24878421 0.07837322 62.90379894 0.09960751 71.55889893 0.13105774 C82.67539759 0.1713983 93.79180417 0.18875345 104.90836716 0.19836712 C114.46203594 0.20666185 124.01568515 0.22389778 133.56933689 0.24340463 C136.64309421 0.24947311 139.71685228 0.25461412 142.79061127 0.25975609 C147.61361684 0.26852879 152.43657669 0.28282736 157.25955391 0.30146599 C159.03210766 0.30759501 160.80466812 0.31204153 162.57723045 0.31470871 C164.99090243 0.31868215 167.40447058 0.3287923 169.81811523 0.34057617 C170.52442731 0.34039181 171.23073938 0.34020745 171.95845485 0.3400175 C174.97228943 0.36081231 177.27017678 0.52610934 180.15509033 1.48774719 C180.15509033 2.14774719 180.15509033 2.80774719 180.15509033 3.48774719 C180.75321533 3.71462219 181.35134033 3.94149719 181.96759033 4.17524719 C184.86421907 5.91322443 185.69307722 7.43798115 187.15509033 10.48774719 C187.43977454 13.11013265 187.56509126 15.49138403 187.54277039 18.10992432 C187.55084869 19.24929352 187.55084869 19.24929352 187.5590902 20.41168028 C187.57337905 22.95274512 187.56626391 25.49328971 187.55914307 28.03437805 C187.56484616 29.85787373 187.57181018 31.68136583 187.5799408 33.50485229 C187.59789407 38.45526584 187.59669974 43.40550234 187.59099841 48.35593867 C187.5879097 52.48873789 187.59399547 56.62150295 187.60003716 60.75429732 C187.61408789 70.50393642 187.61251651 80.25348792 187.60113525 90.00312805 C187.58965312 100.06144884 187.6037301 110.11950302 187.63053173 120.17778867 C187.65268254 128.81402431 187.65932751 137.45017621 187.65345532 146.08643824 C187.65008311 151.24427426 187.65251841 156.40193937 187.66970634 161.55975151 C187.68516351 166.40993781 187.68123354 171.2597289 187.6624012 176.10989952 C187.65871193 177.88925857 187.66183364 179.66864681 187.67228699 181.44797897 C187.68547584 183.87863772 187.67396917 186.30798405 187.65629578 188.73858643 C187.67070329 189.79282953 187.67070329 189.79282953 187.68540186 190.86837047 C187.61064846 195.87088357 186.37190731 198.69170915 183.15509033 202.48774719 C178.7089646 206.25040923 175.13065656 207.06825082 169.45735168 206.99568176 C168.70170691 207.00192173 167.94606213 207.00816169 167.16751903 207.01459074 C164.64555821 207.03049478 162.12456741 207.01792717 159.6026001 207.00532532 C157.79043007 207.01074765 155.97826446 207.01787094 154.16610718 207.02656555 C149.25074988 207.04478989 144.33572869 207.03773467 139.42036557 207.02504921 C134.27333251 207.01491542 129.12632803 207.02431609 123.97929382 207.03059387 C115.33495931 207.03786982 106.69076151 207.02828461 98.04644775 207.00923157 C88.05798362 206.98746984 78.06984617 206.99450936 68.08138996 207.01653719 C59.50115973 207.03470087 50.92102774 207.03724455 42.34078449 207.02678251 C37.21815351 207.02055204 32.09567596 207.01969959 26.97305489 207.03292847 C22.15566503 207.04450015 17.33869542 207.03643706 12.52135086 207.01335144 C10.75531779 207.00807111 8.98924923 207.00956656 7.22323036 207.0184021 C4.8082835 207.02936847 2.39467472 207.01558212 -0.02018738 206.99568176 C-0.7155302 207.00460465 -1.41087303 207.01352754 -2.12728685 207.02272081 C-7.23277784 206.94137341 -10.97303031 205.7591898 -14.84490967 202.48774719 C-18.63179985 198.00066463 -19.42763486 193.49767148 -19.35284424 187.7077179 C-19.3590842 186.95530225 -19.36532416 186.2028866 -19.37175322 185.42767048 C-19.38762623 182.92263157 -19.37510198 180.41857345 -19.36248779 177.91352844 C-19.36791146 176.11106298 -19.3750355 174.30860195 -19.38372803 172.50614929 C-19.40193517 167.6218411 -19.39490461 162.73787156 -19.38221169 157.85355759 C-19.37207052 152.73722688 -19.38148047 147.62092477 -19.38775635 142.5045929 C-19.39502949 133.91331284 -19.38545376 125.32217041 -19.36639404 116.73091125 C-19.34462597 106.80434165 -19.35167758 96.87810069 -19.37369967 86.95153904 C-19.39186312 78.42224347 -19.39440735 69.89304672 -19.38394499 61.36373806 C-19.37771528 56.27242078 -19.3768601 51.18125787 -19.39009094 46.08995056 C-19.40166255 41.30291517 -19.39359971 36.5163027 -19.37051392 31.7293129 C-19.36523384 29.97456692 -19.3667286 28.21978523 -19.37556458 26.46505356 C-19.3865318 24.06548397 -19.37274373 21.66726079 -19.35284424 19.26777649 C-19.36176713 18.57700673 -19.37069001 17.88623697 -19.37988329 17.1745348 C-19.29822906 12.08188267 -18.10495466 8.35100115 -14.84490967 4.48774719 C-10.33872433 0.67654906 -5.81627374 -0.09148427 0 0 Z " fill="#027AB4" transform="translate(644.8449096679688,42.51225280761719)"/>
<path d="M0 0 C10.23 0 20.46 0 31 0 C31 48.18 31 96.36 31 146 C21.76 146 12.52 146 3 146 C1.875 138.125 1.875 138.125 2 134 C1.46632813 134.51949219 0.93265625 135.03898438 0.3828125 135.57421875 C-9.45182618 144.77930444 -17.48042164 147.96988958 -31 148 C-32.01320313 148.02320313 -33.02640625 148.04640625 -34.0703125 148.0703125 C-45.26188494 147.80171476 -56.30776118 142.06373899 -64 134 C-64.845625 133.13375 -65.69125 132.2675 -66.5625 131.375 C-75.10445328 120.49317173 -79.44255793 105.76440693 -78 92 C-76.02423446 77.1323643 -70.25191698 61.42248325 -58.25 51.625 C-47.61512406 44.30704443 -34.30830648 42.47109942 -21.765625 44.53125 C-13.37679166 46.49006388 -7.12226959 48.87773041 -1 55 C-0.67 36.85 -0.34 18.7 0 0 Z M-42 80 C-42 80.66 -42 81.32 -42 82 C-42.66 82 -43.32 82 -44 82 C-46.34295976 86.63924701 -46.33321952 90.86121751 -46.3125 95.9375 C-46.32861328 96.72318359 -46.34472656 97.50886719 -46.36132812 98.31835938 C-46.36660623 104.62569875 -44.91680983 108.69982821 -40.8125 113.625 C-34.50770912 118.94904563 -28.27014015 121.09262557 -20 121 C-12.80256847 120.3700572 -6.13031882 116.51604531 -1.3515625 111.1484375 C3.05659537 104.14125014 3.68379302 95.76869062 1.98828125 87.83203125 C-0.16389306 81.66473332 -4.09776457 76.87311621 -9.6875 73.5 C-21.19450193 68.28928215 -33.51768743 70.48390559 -42 80 Z " fill="#211D1E" transform="translate(565,73)"/>
<path d="M0 0 C10.56 0 21.12 0 32 0 C32.33 27.39 32.66 54.78 33 83 C41.90078363 74.09921637 50.1316435 64.81958201 58 55 C60.50160876 51.87924307 62.62918417 49.24721056 66 47 C68.75786415 46.82822225 71.41215524 46.76783762 74.16796875 46.8046875 C75.36018791 46.80893234 75.36018791 46.80893234 76.57649231 46.81326294 C79.11364838 46.82445295 81.65045072 46.84955509 84.1875 46.875 C85.90819802 46.88503134 87.62890159 46.89415692 89.34960938 46.90234375 C93.56654243 46.92438839 97.78321125 46.95890994 102 47 C100.74011984 50.59065845 99.38998143 52.98979527 96.734375 55.70703125 C96.09113281 56.37669922 95.44789063 57.04636719 94.78515625 57.73632812 C94.11355469 58.42146484 93.44195312 59.10660156 92.75 59.8125 C87.73555208 64.95994409 83.21478849 70.17942517 79 76 C76.55508198 79.19676345 74.03431135 82.05683928 70.875 84.5625 C68.08037631 86.93185487 66.38797051 88.61682187 65 92 C68.13137407 99.67028497 73.98596829 106.39109726 79.16796875 112.73828125 C81.71036612 115.87697651 84.08339793 118.97447405 86.0625 122.5 C86.4028125 123.10070312 86.743125 123.70140625 87.09375 124.3203125 C87.8071659 125.64259197 88.44894644 127.00352733 89.0625 128.375 C89.96674867 130.35764383 89.96674867 130.35764383 93 131 C95.0078125 133.36328125 95.0078125 133.36328125 97.125 136.3125 C97.82882812 137.27800781 98.53265625 138.24351562 99.2578125 139.23828125 C100.80431218 141.68979532 101.40983808 143.24259554 102 146 C96.77200864 146.34883943 91.55089939 146.60122324 86.31396484 146.76904297 C84.53802495 146.8390228 82.76287972 146.93426378 80.98974609 147.05615234 C66.73615792 148.0106695 66.73615792 148.0106695 62.26043701 144.72167969 C59.14821385 141.46193352 56.97297535 137.72779963 54.91241455 133.74249268 C53.71252834 131.45099816 52.28767715 129.34164734 50.8359375 127.203125 C50.01100253 125.88830557 49.19043271 124.57073364 48.375 123.25 C47.94316406 122.56679687 47.51132812 121.88359375 47.06640625 121.1796875 C44 116.25396825 44 116.25396825 44 114 C43.34 114 42.68 114 42 114 C40.5765578 112.0700569 39.23440799 110.0796509 37.9375 108.0625 C35.70667733 104.34860293 35.70667733 104.34860293 33 101 C32.67 115.85 32.34 130.7 32 146 C21.44 146 10.88 146 0 146 C0 97.82 0 49.64 0 0 Z " fill="#221E1F" transform="translate(281,73)"/>
<path d="M0 0 C2.59354373 2.45572257 4.40598679 5.08666073 6.03515625 8.2890625 C7.07495005 10.2676175 8.29644124 12.03414305 9.5625 13.875 C15.63648925 23.518626 17.02501525 36.9366979 16 48.125 C15.34 49.445 14.68 50.765 14 52.125 C-8.77 52.455 -31.54 52.785 -55 53.125 C-54.01 56.59 -54.01 56.59 -53 60.125 C-52.34 60.125 -51.68 60.125 -51 60.125 C-48 63.58653846 -48 63.58653846 -48 66.125 C-39.75241431 69.65538732 -31.77447523 71.24065952 -23.19140625 68.11328125 C-18.41423052 65.95886867 -14.85112472 63.56008289 -12 59.125 C-3.43680727 62.31932583 3.34031885 67.99156068 10 74.125 C5.56661498 83.61364758 -3.82445016 88.66341971 -13.2734375 92.1171875 C-20.11987303 93.96873925 -26.94094555 94.13701103 -34 94.125 C-35.13695312 94.13660156 -36.27390625 94.14820313 -37.4453125 94.16015625 C-49.48883572 93.79026917 -62.56095857 88.99857201 -71 80.125 C-71 79.465 -71 78.805 -71 78.125 C-71.5878125 77.88136719 -72.175625 77.63773437 -72.78125 77.38671875 C-79.24819341 73.70921396 -82.368161 65.99201687 -84.4375 59.1875 C-88.06351113 43.54835633 -87.05940866 27.89457187 -79.64453125 13.4921875 C-72.71041271 3.51100974 -62.53174429 -3.53783927 -51 -6.875 C-49.948125 -7.266875 -48.89625 -7.65875 -47.8125 -8.0625 C-32.32385545 -12.53699732 -12.80336954 -10.25366212 0 0 Z M-51.7734375 20.30859375 C-54.19086658 23.88854446 -55 25.67207374 -55 30.125 C-50.82679129 31.13156794 -46.90345536 31.25408021 -42.6171875 31.2578125 C-41.57306198 31.25924759 -41.57306198 31.25924759 -40.50784302 31.26071167 C-39.04380197 31.26138931 -37.57975785 31.25956419 -36.11572266 31.25537109 C-33.87525718 31.25000062 -31.63499068 31.25533847 -29.39453125 31.26171875 C-27.96874956 31.26105821 -26.54296799 31.25977755 -25.1171875 31.2578125 C-23.17755127 31.25612061 -23.17755127 31.25612061 -21.19873047 31.25439453 C-17.97956174 31.27242321 -17.97956174 31.27242321 -15 30.125 C-15.58907601 23.93970187 -17.89016343 20.12379254 -22.375 15.875 C-32.52485157 9.10843229 -44.32319927 11.00620132 -51.7734375 20.30859375 Z " fill="#211D1E" transform="translate(464,126.875)"/>
<path d="M0 0 C6.61364525 4.27506029 10.76258032 9.90934204 13.0402832 17.43896484 C15.7642385 32.64700066 15.34572173 47.97768299 15.20599365 63.36749268 C15.16933533 67.84234873 15.15603532 72.31733295 15.13863373 76.79229736 C15.10991725 83.52845612 15.05229369 90.26379804 15 97 C4.77 97 -5.46 97 -16 97 C-16.03738281 92.84535156 -16.07476562 88.69070312 -16.11328125 84.41015625 C-16.15144574 81.07638731 -16.19251801 77.7426821 -16.2355423 74.40897369 C-16.280018 70.90149662 -16.31948994 67.39413388 -16.34643555 63.88647461 C-16.37766317 59.85241123 -16.43244401 55.81895464 -16.48828125 51.78515625 C-16.49467117 50.54105484 -16.5010611 49.29695343 -16.50764465 48.01515198 C-16.64586469 39.7715625 -17.53122165 33.03233798 -21.875 25.9375 C-26.98972994 22.76636744 -32.16202032 23.11567549 -38 24 C-42.54784312 25.75571495 -44.53044167 28.15479501 -46.875 32.375 C-49.24357892 40.00708764 -49.20059703 47.56143519 -49.31640625 55.49609375 C-49.33718735 56.68477554 -49.35796844 57.87345734 -49.37937927 59.09815979 C-49.44451987 62.87788368 -49.50359425 66.65767431 -49.5625 70.4375 C-49.60571899 73.00716823 -49.64933434 75.57682983 -49.69335938 78.14648438 C-49.80090707 84.43092231 -49.90024467 90.71541425 -50 97 C-59.9 97 -69.8 97 -80 97 C-81.70723321 68.83065207 -81.41256236 40.51239483 -80.5625 12.3125 C-80.5429425 11.62738342 -80.52338501 10.94226685 -80.50323486 10.23638916 C-80.17569255 -0.82430745 -80.17569255 -0.82430745 -79 -2 C-76.92737924 -2.08767112 -74.85179706 -2.10695873 -72.77734375 -2.09765625 C-71.51728516 -2.09443359 -70.25722656 -2.09121094 -68.95898438 -2.08789062 C-67.61848891 -2.07953403 -66.27799412 -2.07106907 -64.9375 -2.0625 C-63.59310058 -2.0574866 -62.2486994 -2.05292342 -60.90429688 -2.04882812 C-57.60282059 -2.03699488 -54.30143197 -2.02050971 -51 -2 C-50.67 1.63 -50.34 5.26 -50 9 C-49.54625 8.29875 -49.0925 7.5975 -48.625 6.875 C-36.45480583 -6.45426028 -15.67056143 -7.30862947 0 0 Z " fill="#211D1E" transform="translate(251,122)"/>
<path d="M0 0 C7.98035623 6.73425409 11.5028522 17.96310583 13 28 C13.2685726 33.25263108 13.23374145 38.49677897 13.1953125 43.75390625 C13.19157551 45.265618 13.18873179 46.77733219 13.18673706 48.28904724 C13.17915453 52.23950054 13.15955326 56.18980332 13.1373291 60.14019775 C13.11312689 64.89521424 13.10406403 69.65028146 13.09242249 74.4053421 C13.07312492 81.60366561 13.03476526 88.80165983 13 96 C3.1 96 -6.8 96 -17 96 C-18.27144595 93.4571081 -18.09994284 91.72837395 -18.06591797 88.8828125 C-18.05615936 87.81409912 -18.04640076 86.74538574 -18.03634644 85.64428711 C-18.02177399 84.48292236 -18.00720154 83.32155762 -17.9921875 82.125 C-17.9746565 79.67057716 -17.95774965 77.21614979 -17.94140625 74.76171875 C-17.91055536 70.88870744 -17.87519149 67.01592225 -17.82861328 63.14306641 C-17.78602081 59.40784985 -17.7627512 55.67289442 -17.7421875 51.9375 C-17.72356659 50.7923291 -17.70494568 49.6471582 -17.6857605 48.46728516 C-17.65976823 40.23584589 -18.11632329 32.44634533 -23.5625 25.9375 C-28.40103668 22.09148366 -32.99634469 22.44979978 -39 23 C-42.19722111 23.77066568 -44.56884299 24.75999047 -47 27 C-50.37018501 33.1884582 -51.09129408 40.69875399 -51.20532227 47.63818359 C-51.22526749 48.71885101 -51.24521271 49.79951843 -51.26576233 50.91293335 C-51.28247482 52.06314972 -51.29918732 53.21336609 -51.31640625 54.3984375 C-51.33718735 55.58853424 -51.35796844 56.77863098 -51.37937927 58.00479126 C-51.44460095 61.79480385 -51.50363234 65.58488391 -51.5625 69.375 C-51.60571126 71.94922564 -51.64932638 74.52344453 -51.69335938 77.09765625 C-51.80101179 83.39836944 -51.90028936 89.69913611 -52 96 C-62.23 96 -72.46 96 -83 96 C-83 63.66 -83 31.32 -83 -2 C-60.5 -3.125 -60.5 -3.125 -53 -2 C-52.67 1.63 -52.34 5.26 -52 9 C-51.67 8.34 -51.34 7.68 -51 7 C-50.34 7 -49.68 7 -49 7 C-48.67 5.68 -48.34 4.36 -48 3 C-47.34 3 -46.68 3 -46 3 C-46 2.34 -46 1.68 -46 1 C-44.62667716 0.37132332 -43.25124167 -0.25273891 -41.875 -0.875 C-40.72644531 -1.39707031 -40.72644531 -1.39707031 -39.5546875 -1.9296875 C-26.65925188 -7.33236236 -12.39329124 -6.42170539 0 0 Z " fill="#FBFEFE" transform="translate(789,123)"/>
<path d="M0 0 C10.56 0 21.12 0 32 0 C32.33 37.95 32.66 75.9 33 115 C52.04286074 114.96038855 52.04286074 114.96038855 71.08569336 114.90991211 C73.46207637 114.9069932 75.83845988 114.90444459 78.21484375 114.90234375 C79.462052 114.89722778 80.70926025 114.89211182 81.9942627 114.88684082 C83.17170044 114.88671997 84.34913818 114.88659912 85.56225586 114.88647461 C87.1044706 114.88314369 87.1044706 114.88314369 88.67784119 114.87974548 C91 115 91 115 92 116 C92.09988258 117.96410611 92.13080835 119.93179434 92.1328125 121.8984375 C92.13410156 123.09984375 92.13539062 124.30125 92.13671875 125.5390625 C92.13285156 126.80492187 92.12898438 128.07078125 92.125 129.375 C92.12886719 130.633125 92.13273437 131.89125 92.13671875 133.1875 C92.13542969 134.39148438 92.13414063 135.59546875 92.1328125 136.8359375 C92.13168457 137.94501465 92.13055664 139.0540918 92.12939453 140.19677734 C92 143 92 143 91 146 C60.97 146 30.94 146 0 146 C0 97.82 0 49.64 0 0 Z " fill="#221E1F" transform="translate(18,73)"/>
<path d="M0 0 C0 32.34 0 64.68 0 98 C-10.56 98 -21.12 98 -32 98 C-32 65.66 -32 33.32 -32 0 C-2 -1 -2 -1 0 0 Z " fill="#FAFDFE" transform="translate(688,121)"/>
<path d="M0 0 C10.23 0 20.46 0 31 0 C31 32.67 31 65.34 31 99 C20.77 99 10.54 99 0 99 C0 66.33 0 33.66 0 0 Z " fill="#231E20" transform="translate(123,120)"/>
<path d="M0 0 C1.39025391 -0.02126953 1.39025391 -0.02126953 2.80859375 -0.04296875 C6.62378428 0.2763167 9.39283763 1.1630553 12.29296875 3.703125 C16.48296686 8.69068307 18.60837543 12.34322347 18.5 19.0625 C17.57076326 24.75817461 14.65874979 29.33082161 10.375 33.125 C4.37429893 35.39193151 -2.4018317 35.9931046 -8.61328125 34.19140625 C-12.81591518 31.87860771 -15.34145214 27.37959571 -17.4375 23.1875 C-17.94714647 17.60645346 -18.22431405 12.76112809 -15.6875 7.6875 C-14.945 6.8625 -14.2025 6.0375 -13.4375 5.1875 C-12.7775 4.424375 -12.1175 3.66125 -11.4375 2.875 C-7.9815835 -0.04092955 -4.40583889 0.03055367 0 0 Z " fill="#211D1E" transform="translate(138.4375,71.8125)"/>
<path d="M0 0 C4.32904104 3.95260269 5.68932937 7.08417595 6.00390625 12.765625 C5.9929179 19.05096183 5.02985097 23.07462659 1 28 C-3.07365198 31.09035667 -6.82447589 31.61275301 -11.8125 31.625 C-12.87609741 31.62850464 -12.87609741 31.62850464 -13.96118164 31.63208008 C-19.72074427 31.43288114 -22.80321827 29.92497777 -26.71484375 25.82421875 C-30.45235339 20.51899991 -29.51775937 13.17055684 -29 7 C-27.57681646 2.9442956 -24.66727052 0.17744187 -21 -2 C-13.87102808 -4.18296142 -6.45076626 -3.79456839 0 0 Z " fill="#F9FDFD" transform="translate(684,75)"/>
<path d="M0 0 C10.56 0 21.12 0 32 0 C32.33 37.95 32.66 75.9 33 115 C48.84 115 64.68 115 81 115 C83.97 115.33 86.94 115.66 90 116 C87.46574693 118.53425307 86.58889944 118.25261254 83.07885742 118.25878906 C82.05406784 118.26509338 81.02927826 118.27139771 79.97343445 118.27789307 C78.86200577 118.2738446 77.75057709 118.26979614 76.60546875 118.265625 C75.46596268 118.26753845 74.3264566 118.2694519 73.15242004 118.27142334 C70.73727193 118.27278654 68.32211653 118.26908074 65.90698242 118.26074219 C62.21321052 118.25007425 58.51992827 118.26061795 54.82617188 118.2734375 C52.48176976 118.27211535 50.13736795 118.26955181 47.79296875 118.265625 C46.68761276 118.26967346 45.58225677 118.27372192 44.44340515 118.27789307 C43.40915909 118.27158875 42.37491302 118.26528442 41.30932617 118.25878906 C40.40268723 118.25719788 39.49604828 118.25560669 38.56193542 118.25396729 C35.64829793 117.96513541 33.56653587 117.41960127 31 116 C29.97100854 113.09544987 29.87628253 110.36623964 29.87974548 107.30499268 C29.87837082 106.36552292 29.87699615 105.42605316 29.87557983 104.45811462 C29.87917511 103.43456375 29.88277039 102.41101288 29.88647461 101.35644531 C29.88632858 100.27321487 29.88618256 99.18998444 29.8860321 98.07392883 C29.886729 94.49197388 29.89451105 90.91007087 29.90234375 87.328125 C29.90420872 84.84519479 29.90563225 82.36226421 29.90663147 79.8793335 C29.91006005 74.01103191 29.91794231 68.14274951 29.92798096 62.27445579 C29.94026026 54.93687978 29.94562703 47.59930268 29.95117188 40.26171875 C29.96189824 27.17446784 29.97949005 14.08723924 30 1 C20.76 1 11.52 1 2 1 C2 48.19 2 95.38 2 144 C31.04 144 60.08 144 90 144 C90 140.04 90 136.08 90 132 C90.33 132 90.66 132 91 132 C91 136.62 91 141.24 91 146 C60.97 146 30.94 146 0 146 C0 97.82 0 49.64 0 0 Z " fill="#0A0809" transform="translate(18,73)"/>
<path d="M0 0 C10.56 0 21.12 0 32 0 C32.33 27.39 32.66 54.78 33 83 C33.99 83 34.98 83 36 83 C34.68 84.98 33.36 86.96 32 89 C29.09914344 86.09914344 29.64492637 83.07315854 29.5859375 79.1796875 C29.56648071 78.38099243 29.54702393 77.58229736 29.52697754 76.75939941 C29.46611378 74.13137588 29.42000845 71.50333946 29.375 68.875 C29.33778352 67.0593997 29.30018285 65.24380723 29.26220703 63.42822266 C29.03695021 52.07822213 28.90172084 40.72719373 28.875 29.375 C28.87032715 28.12315918 28.8656543 26.87131836 28.86083984 25.58154297 C28.87530218 17.33244624 29.33673525 9.2223773 30 1 C20.76 1 11.52 1 2 1 C2 48.19 2 95.38 2 144 C11.24 144 20.48 144 30 144 C30 128.49 30 112.98 30 97 C30.66 97.33 31.32 97.66 32 98 C32 113.84 32 129.68 32 146 C21.44 146 10.88 146 0 146 C0 97.82 0 49.64 0 0 Z " fill="#0C090A" transform="translate(281,73)"/>
<path d="M0 0 C10.23 0 20.46 0 31 0 C31 48.18 31 96.36 31 146 C21.76 146 12.52 146 3 146 C2.20379272 140.42654907 2.02750092 137.2947172 3 132 C3.33 132 3.66 132 4 132 C4 135.96 4 139.92 4 144 C12.25 144 20.5 144 29 144 C29 96.81 29 49.62 29 1 C20.09 1 11.18 1 2 1 C2 19.48 2 37.96 2 57 C1.34 56.67 0.68 56.34 0 56 C0 37.52 0 19.04 0 0 Z " fill="#131011" transform="translate(565,73)"/>
<path d="M0 0 C4.08645414 4.08645414 3.06555907 11.40381598 3.11352539 16.875 C3.11336812 19.58347365 3.10798842 22.29158106 3.09765625 25 C3.0957881 26.44588166 3.09436607 27.89176396 3.09336853 29.33764648 C3.08957463 33.11873157 3.07977151 36.89977744 3.06866455 40.68084717 C3.05657078 45.23061818 3.05203329 49.78040241 3.04621124 54.33018494 C3.0365577 61.22015046 3.01737941 68.11003014 3 75 C-7.23 75 -17.46 75 -28 75 C-28.03738281 70.84535156 -28.07476562 66.69070312 -28.11328125 62.41015625 C-28.15144574 59.07638731 -28.19251801 55.7426821 -28.2355423 52.40897369 C-28.280018 48.90149662 -28.31948994 45.39413388 -28.34643555 41.88647461 C-28.37766317 37.85241123 -28.43244401 33.81895464 -28.48828125 29.78515625 C-28.49467117 28.54105484 -28.5010611 27.29695343 -28.50764465 26.01515198 C-28.65289606 17.35220425 -30.06313781 10.68178809 -34 3 C-31 4 -31 4 -29.8671875 5.6015625 C-29.53976563 6.26929688 -29.21234375 6.93703125 -28.875 7.625 C-28.54242188 8.27726563 -28.20984375 8.92953125 -27.8671875 9.6015625 C-25.66588602 15.68984676 -25.79451165 22.30120873 -25.6484375 28.703125 C-25.62528473 29.62156189 -25.60213196 30.53999878 -25.57827759 31.48626709 C-25.53085215 33.42259718 -25.48559371 35.35898143 -25.44238281 37.29541016 C-25.37552149 40.22713359 -25.29753849 43.15841962 -25.21875 46.08984375 C-25.17379993 47.98175482 -25.1295081 49.87368166 -25.0859375 51.765625 C-25.06203949 52.62746399 -25.03814148 53.48930298 -25.01351929 54.3772583 C-24.88532337 60.74174555 -25.41484582 66.56330407 -26 73 C-17.09 73 -8.18 73 1 73 C0.67 48.91 0.34 24.82 0 0 Z " fill="#110D0E" transform="translate(263,144)"/>
<path d="M0 0 C1.98 0.495 1.98 0.495 4 1 C3.01 1 2.02 1 1 1 C1 32.35 1 63.7 1 96 C9.91 96 18.82 96 28 96 C28 81.81 28 67.62 28 53 C28.33 53 28.66 53 29 53 C29.33 67.85 29.66 82.7 30 98 C19.77 98 9.54 98 -1 98 C-1.02742868 88.60415185 -1.05097297 79.20837198 -1.0625 69.8125 C-1.06335602 69.11966038 -1.06421204 68.42682076 -1.06509399 67.71298599 C-1.08975167 45.12848938 -0.85316826 22.57038473 0 0 Z " fill="#0E0B0B" transform="translate(124,121)"/>
<path d="M0 0 C10.23 0 20.46 0 31 0 C31 32.01 31 64.02 31 97 C30.67 97 30.34 97 30 97 C29.06878054 65.32863178 28.87345136 33.68393436 29 2 C27.94087402 2.00785522 27.94087402 2.00785522 26.86035156 2.01586914 C23.65691012 2.03667413 20.4534829 2.04967141 17.25 2.0625 C16.13882813 2.07087891 15.02765625 2.07925781 13.8828125 2.08789062 C12.27792969 2.09272461 12.27792969 2.09272461 10.640625 2.09765625 C9.65610352 2.10289307 8.67158203 2.10812988 7.65722656 2.11352539 C5 2 5 2 1 1 C1 13.21 1 25.42 1 38 C0.67 38 0.34 38 0 38 C0 25.46 0 12.92 0 0 Z " fill="#191516" transform="translate(123,120)"/>
<path d="M0 0 C2.63975298 1.00128561 3.94146044 1.92711722 5.72577 4.14861393 C7.31069655 7.69525581 7.42016557 10.8111876 7.38768005 14.62217712 C7.39306559 15.38175659 7.39845113 16.14133606 7.40399987 16.92393309 C7.41828871 19.46499793 7.41117358 22.00554252 7.40405273 24.54663086 C7.40975582 26.37012653 7.41671985 28.19361864 7.42485046 30.0171051 C7.44280373 34.96751865 7.44160941 39.91775515 7.43590808 44.86819148 C7.43281937 49.0009907 7.43890514 53.13375576 7.44494683 57.26655012 C7.45899756 67.01618923 7.45742618 76.76574072 7.44604492 86.51538086 C7.43456279 96.57370165 7.44863977 106.63175583 7.4754414 116.69004148 C7.49759221 125.32627711 7.50423718 133.96242902 7.49836498 142.59869105 C7.49499277 147.75652707 7.49742807 152.91419218 7.51461601 158.07200432 C7.53007318 162.92219062 7.52614321 167.77198171 7.50731087 172.62215233 C7.50362159 174.40151137 7.50674331 176.18089962 7.51719666 177.96023178 C7.53038551 180.39089053 7.51887884 182.82023685 7.50120544 185.25083923 C7.51081045 185.95366797 7.52041546 186.6564967 7.53031152 187.38062328 C7.45626144 192.33607079 6.16352164 195.21731935 3 199 C2.01 199.33 1.02 199.66 0 200 C0 199.34 0 198.68 0 198 C0.66 198 1.32 198 2 198 C2.12375 197.030625 2.2475 196.06125 2.375 195.0625 C2.58125 194.051875 2.7875 193.04125 3 192 C3.66 191.67 4.32 191.34 5 191 C5.1168714 167.42564586 5.20500695 143.85133524 5.25906086 120.27674961 C5.28482765 109.33031586 5.31994919 98.38406226 5.37719727 87.43774414 C5.42707872 77.89542628 5.4593021 68.35323891 5.47044247 58.81079429 C5.47695316 53.75944134 5.49222356 48.70846164 5.52865028 43.65722847 C5.5626846 38.89902443 5.57303793 34.14134605 5.56553841 29.38303185 C5.56690963 27.64038355 5.5767978 25.89771699 5.59602737 24.15517426 C5.78703783 11.28030957 5.78703783 11.28030957 0 0 Z " fill="#106997" transform="translate(825,46)"/>
<path d="M0 0 C9.9 0 19.8 0 30 0 C30.33 27.39 30.66 54.78 31 83 C31.99 83 32.98 83 34 83 C32.68 84.98 31.36 86.96 30 89 C27.09914344 86.09914344 27.64492637 83.07315854 27.5859375 79.1796875 C27.56648071 78.38099243 27.54702393 77.58229736 27.52697754 76.75939941 C27.46611378 74.13137588 27.42000845 71.50333946 27.375 68.875 C27.33778352 67.0593997 27.30018285 65.24380723 27.26220703 63.42822266 C27.03695021 52.07822213 26.90172084 40.72719373 26.875 29.375 C26.87032715 28.12315918 26.8656543 26.87131836 26.86083984 25.58154297 C26.87530218 17.33244624 27.33673525 9.2223773 28 1 C18.76 1 9.52 1 0 1 C0 0.67 0 0.34 0 0 Z " fill="#151113" transform="translate(283,73)"/>
<path d="M0 0 C0.33 0 0.66 0 1 0 C1.00423194 0.88329955 1.00846388 1.7665991 1.01282406 2.67666531 C1.11620192 24.18543551 1.22485027 45.69417349 1.33933926 67.20288754 C1.39457898 77.60440407 1.44804557 88.00592403 1.49731445 98.4074707 C1.54026983 107.47516856 1.58657605 116.54284212 1.63687855 125.6105023 C1.66338825 130.4101719 1.68823859 135.20983697 1.70907402 140.00953484 C1.72875572 144.53124602 1.75293281 149.05291132 1.78049088 153.57458115 C1.78980058 155.23011371 1.79749726 156.8856563 1.80341911 158.54120445 C1.12191348 171.63787018 1.12191348 171.63787018 4 184 C4.36141955 186.32914823 4.69699525 188.66253478 5 191 C1.42796725 187.65842098 0.06726164 185.77257903 -0.12304783 180.75726032 C-0.12725752 179.38947467 -0.12588821 178.02166541 -0.12025452 176.65388489 C-0.12110894 175.89994798 -0.12196337 175.14601107 -0.12284368 174.36922759 C-0.12449454 171.83572738 -0.11898354 169.30229297 -0.11352539 166.76879883 C-0.11324341 164.95557151 -0.11340147 163.14234407 -0.1139679 161.32911682 C-0.11425544 156.39968966 -0.10836566 151.47028671 -0.10139394 146.54086518 C-0.09515324 141.39188398 -0.09455603 136.24290225 -0.09336853 131.09391785 C-0.09025734 121.34045499 -0.08204678 111.58700331 -0.07201904 101.83354539 C-0.06085135 90.73090743 -0.0553458 79.62826895 -0.05032361 68.52562678 C-0.03986401 45.68374498 -0.02226864 22.84187312 0 0 Z " fill="#166E9D" transform="translate(626,54)"/>
<path d="M0 0 C4.2704276 4.2704276 3.14010053 12.73366996 3.23046875 18.484375 C3 21 3 21 1 25 C-21.77 25.33 -44.54 25.66 -68 26 C-67.34 28.31 -66.68 30.62 -66 33 C-65.34 33 -64.68 33 -64 33 C-63.67 33.99 -63.34 34.98 -63 36 C-66.09246438 34.93363297 -67.00415447 33.99355341 -68.8125 31.1875 C-70 28 -70 28 -69 23 C-45.9 23 -22.8 23 1 23 C0.505 21.02 0.505 21.02 0 19 C-0.06729615 15.43330402 0.00204871 11.87912623 0.0625 8.3125 C0.01129712 5.5987474 -0.30580846 3.57842571 -1 1 C-0.67 0.67 -0.34 0.34 0 0 Z " fill="#130E11" transform="translate(477,154)"/>
<path d="M0 0 C0.33 0 0.66 0 1 0 C1.33 37.95 1.66 75.9 2 115 C-7.24 115 -16.48 115 -26 115 C-26.79620728 109.42654907 -26.97249908 106.2947172 -26 101 C-25.67 101 -25.34 101 -25 101 C-25 104.96 -25 108.92 -25 113 C-16.75 113 -8.5 113 0 113 C0 75.71 0 38.42 0 0 Z " fill="#0D090A" transform="translate(594,104)"/>
<path d="M0 0 C11.88 0 23.76 0 36 0 C34.29118884 4.27202791 33.50462482 5.88077243 30.5234375 8.98828125 C29.853125 9.69404297 29.1828125 10.39980469 28.4921875 11.12695312 C27.79351562 11.84818359 27.09484375 12.56941406 26.375 13.3125 C25.31539063 14.42334961 25.31539063 14.42334961 24.234375 15.55664062 C22.4959038 17.37733681 20.75105852 19.19142032 19 21 C19 17.55268482 19.31868075 17.29544107 21.58984375 14.93359375 C22.12673828 14.36576172 22.66363281 13.79792969 23.21679688 13.21289062 C23.78462891 12.62701172 24.35246094 12.04113281 24.9375 11.4375 C26.05267815 10.27134228 27.16604649 9.10345038 28.27734375 7.93359375 C29.02359009 7.1610022 29.02359009 7.1610022 29.78491211 6.37280273 C31.110358 4.99422836 31.110358 4.99422836 32 3 C21.11 2.67 10.22 2.34 -1 2 C-0.67 1.34 -0.34 0.68 0 0 Z " fill="#120F12" transform="translate(347,120)"/>
<path d="M0 0 C1.16781006 0.00523682 2.33562012 0.01047363 3.53881836 0.01586914 C4.79887695 0.0190918 6.05893555 0.02231445 7.35717773 0.02563477 C8.6976732 0.03399136 10.03816799 0.04245632 11.37866211 0.05102539 C12.72306153 0.05603879 14.06746271 0.06060197 15.41186523 0.06469727 C18.71334151 0.07653051 22.01473014 0.09301568 25.31616211 0.11352539 C25.31616211 4.07352539 25.31616211 8.03352539 25.31616211 12.11352539 C24.65616211 11.45352539 23.99616211 10.79352539 23.31616211 10.11352539 C23.31616211 7.80352539 23.31616211 5.49352539 23.31616211 3.11352539 C10.44616211 2.61852539 10.44616211 2.61852539 -2.68383789 2.11352539 C-2.68383789 13.00352539 -2.68383789 23.89352539 -2.68383789 35.11352539 C-3.34383789 35.11352539 -4.00383789 35.11352539 -4.68383789 35.11352539 C-4.5658836 30.28953625 -4.44165771 25.46576581 -4.31152344 20.64208984 C-4.26811492 18.99988236 -4.22644431 17.357628 -4.18652344 15.71533203 C-4.12896349 13.35963794 -4.06522897 11.00418111 -4.00024414 8.64868164 C-3.98353165 7.91013443 -3.96681915 7.17158722 -3.94960022 6.41065979 C-3.76641054 0.15931783 -3.76641054 0.15931783 0 0 Z " fill="#100D10" transform="translate(174.683837890625,119.886474609375)"/>
<path d="M0 0 C0.66 0 1.32 0 2 0 C2 0.99 2 1.98 2 3 C1.34 3 0.68 3 0 3 C0 3.99 0 4.98 0 6 C-0.639375 6.28875 -1.27875 6.5775 -1.9375 6.875 C-4.15206079 7.82823451 -4.15206079 7.82823451 -5 10 C-5.66 10 -6.32 10 -7 10 C-7 10.66 -7 11.32 -7 12 C-7.66 12 -8.32 12 -9 12 C-9 11.34 -9 10.68 -9 10 C-11.97 10 -14.94 10 -18 10 C-18 10.66 -18 11.32 -18 12 C-20.97 11.505 -20.97 11.505 -24 11 C-24 10.01 -24 9.02 -24 8 C-25.98 8 -27.96 8 -30 8 C-29.67 6.35 -29.34 4.7 -29 3 C-28.17628906 3.65097656 -27.35257813 4.30195312 -26.50390625 4.97265625 C-22.80683198 7.43049987 -19.27842742 7.56314776 -14.9375 7.4375 C-13.89625977 7.44813477 -13.89625977 7.44813477 -12.83398438 7.45898438 C-8.39991249 7.40424275 -5.51956929 6.71547294 -2 4 C-0.67206394 1.93299345 -0.67206394 1.93299345 0 0 Z " fill="#1D76A7" transform="translate(687,98)"/>
<path d="M0 0 C6.17357104 -0.43323306 10.09215529 0.09766494 15 4 C19.20448778 8.15999585 21.92589928 11.77697843 22.125 17.75 C22.08375 18.8225 22.0425 19.895 22 21 C16.29014022 21.74016701 10.75813575 22.10469338 5 22 C5 21.01 5 20.02 5 19 C10.28 19 15.56 19 21 19 C18.03296908 9.95338557 18.03296908 9.95338557 11 4 C7.37699387 2.77067654 3.7360113 1.81766795 0 1 C0 0.67 0 0.34 0 0 Z " fill="#0B080A" transform="translate(428,138)"/>
<path d="M0 0 C1.640625 1.1015625 1.640625 1.1015625 3.953125 3.1015625 C3.623125 3.7615625 3.293125 4.4215625 2.953125 5.1015625 C2.39625 4.6271875 1.839375 4.1528125 1.265625 3.6640625 C-1.23033574 1.97760254 -3.0914987 1.51203143 -6.046875 1.1015625 C-6.376875 1.7615625 -6.706875 2.4215625 -7.046875 3.1015625 C-9.686875 3.1015625 -12.326875 3.1015625 -15.046875 3.1015625 C-15.046875 4.0915625 -15.046875 5.0815625 -15.046875 6.1015625 C-17.521875 5.1115625 -17.521875 5.1115625 -20.046875 4.1015625 C-20.706875 6.7415625 -21.366875 9.3815625 -22.046875 12.1015625 C-22.706875 12.1015625 -23.366875 12.1015625 -24.046875 12.1015625 C-23.77678714 8.23030323 -23.28750752 6.39566891 -20.796875 3.3515625 C-15.11653163 -1.29599117 -6.9424877 -3.04727514 0 0 Z " fill="#14729C" transform="translate(763.046875,145.8984375)"/>
<path d="M0 0 C0.66 0.33 1.32 0.66 2 1 C4.65637064 8.96911192 3.52676769 17.5395299 0 25 C-0.40798828 25.99386719 -0.40798828 25.99386719 -0.82421875 27.0078125 C-2.31966607 29.5416269 -3.99266064 30.69465064 -6.4375 32.3125 C-7.21996094 32.84488281 -8.00242187 33.37726563 -8.80859375 33.92578125 C-11 35 -11 35 -14 34 C-12.87851562 33.35998047 -12.87851562 33.35998047 -11.734375 32.70703125 C-4.72731954 28.25883505 -1.41465426 24.59430163 0.5625 16.4765625 C1.26632844 10.8836401 0.83651514 5.55555163 0 0 Z " fill="#141011" transform="translate(566,158)"/>
<path d="M0 0 C0.33 0 0.66 0 1 0 C1.33 16.83 1.66 33.66 2 51 C3.32 51.33 4.64 51.66 6 52 C4.68 53.98 3.36 55.96 2 58 C-0.99241141 55.00758859 -0.37670858 51.63773597 -0.44921875 47.6171875 C-0.47095657 46.77012238 -0.4926944 45.92305725 -0.51509094 45.05032349 C-0.5591038 43.2463852 -0.59828151 41.4423236 -0.63305664 39.63818359 C-0.68633526 36.93411451 -0.75686716 34.23093766 -0.83007812 31.52734375 C-1.08527346 20.95371381 -0.87567953 10.54351655 0 0 Z " fill="#10090D" transform="translate(311,104)"/>
<path d="M0 0 C2.76641818 0.08136524 4.51097677 0.5671726 6.59765625 2.4140625 C10.9649371 7.28567308 13.04545474 11.18180593 12.9375 17.875 C11.98041045 23.74139596 9.01353695 28.41793525 4.375 32.0625 C2 33 2 33 -1 32 C-0.0925 31.443125 0.815 30.88625 1.75 30.3125 C5.54321793 27.61347955 8.21041045 25.18655568 9.8125 20.75 C10.18837218 15.23720807 10.30453049 10.08785915 6.6875 5.625 C4.53608923 3.52362204 2.49686691 1.66457794 0 0 Z " fill="#0C0A0B" transform="translate(144,73)"/>
<path d="M0 0 C1.32 0.33 2.64 0.66 4 1 C3.21625 1.5775 2.4325 2.155 1.625 2.75 C-0.9703813 4.97461254 -1.85027686 5.88462118 -3 9 C-3.27957674 12.37226241 -3.27957674 12.37226241 -3.1875 16 C-3.18105469 17.216875 -3.17460938 18.43375 -3.16796875 19.6875 C-3.03394204 22.33063144 -2.78329524 24.49345523 -2 27 C-2.66 27 -3.32 27 -4 27 C-4 26.01 -4 25.02 -4 24 C-4.66 24 -5.32 24 -6 24 C-6.13548815 21.26916098 -6.23429855 18.54508193 -6.3125 15.8125 C-6.35439453 15.04357422 -6.39628906 14.27464844 -6.43945312 13.48242188 C-6.53327999 9.11008976 -6.46571234 7.55456048 -3.54296875 4.07421875 C-2.70378906 3.38972656 -1.86460937 2.70523438 -1 2 C-0.67 1.34 -0.34 0.68 0 0 Z " fill="#19729F" transform="translate(659,73)"/>
<path d="M0 0 C3.66490488 1.30751439 6.40927914 2.87804794 9.4375 5.3125 C10.20835937 5.92867187 10.97921875 6.54484375 11.7734375 7.1796875 C14.53195027 9.43489268 17.27997871 11.69844353 20 14 C18.54744301 17.82946843 16.57104439 19.12050295 13 21 C14.15173355 18.53199953 15.04783565 16.95216435 17 15 C16.35137474 11.94279946 16.35137474 11.94279946 14.25 11 C13.13625 10.505 13.13625 10.505 12 10 C9.25 8.5 9.25 8.5 7 7 C7 6.34 7 5.68 7 5 C6.21625 4.731875 5.4325 4.46375 4.625 4.1875 C2 3 2 3 0 0 Z " fill="#0A0809" transform="translate(454,187)"/>
<path d="M0 0 C0.33 0.99 0.66 1.98 1 3 C-5.96787634 7.82958625 -13.47660837 10.08764413 -22 10 C-23.9140625 8.53125 -23.9140625 8.53125 -25 7 C-23.72125 7.061875 -22.4425 7.12375 -21.125 7.1875 C-13.15149452 7.1749433 -6.31022252 4.81569614 0 0 Z " fill="#0C090B" transform="translate(449,190)"/>
<path d="M0 0 C0.66 0.33 1.32 0.66 2 1 C2 9.91 2 18.82 2 28 C1.67 28 1.34 28 1 28 C-0.346792 18.50567294 -1.52869575 9.56467747 0 0 Z " fill="#161416" transform="translate(108,188)"/>
<path d="M0 0 C0.88365234 0.00451172 1.76730469 0.00902344 2.67773438 0.01367188 C4.84768559 0.02540134 7.01760172 0.04333505 9.1875 0.0625 C9.1875 1.0525 9.1875 2.0425 9.1875 3.0625 C5.93757554 3.12069424 2.68778565 3.15616116 -0.5625 3.1875 C-1.48289062 3.20425781 -2.40328125 3.22101563 -3.3515625 3.23828125 C-4.68574219 3.24794922 -4.68574219 3.24794922 -6.046875 3.2578125 C-7.27229004 3.27352295 -7.27229004 3.27352295 -8.52246094 3.28955078 C-11.03137518 3.04079916 -12.64645625 2.31950129 -14.8125 1.0625 C-9.89747242 -0.22985715 -5.03959898 -0.04885517 0 0 Z " fill="#0B060A" transform="translate(422.8125,156.9375)"/>
<path d="M0 0 C4.31054779 4.31054779 3.1164959 12.79779523 3.1328125 18.58203125 C3 21 3 21 2 24 C1.34 23.67 0.68 23.34 0 23 C0.01740234 21.12054688 0.01740234 21.12054688 0.03515625 19.203125 C0.04453716 17.55208483 0.05363704 15.90104304 0.0625 14.25 C0.07087891 13.425 0.07925781 12.6 0.08789062 11.75 C0.09272461 10.55117187 0.09272461 10.55117187 0.09765625 9.328125 C0.10289307 8.5949707 0.10812988 7.86181641 0.11352539 7.10644531 C0.06722826 4.96101851 0.06722826 4.96101851 -0.56860352 2.79199219 C-0.71096436 2.20063477 -0.8533252 1.60927734 -1 1 C-0.67 0.67 -0.34 0.34 0 0 Z " fill="#0F0B0F" transform="translate(477,154)"/>
<path d="M0 0 C0 5.67993997 -5.29672135 9.98616159 -9 14 C-11.26778722 15.92679748 -13.46073306 17.43321827 -16 19 C-13.46318999 13.00390362 -8.58849894 8.47084512 -4 4 C-3.236875 3.236875 -2.47375 2.47375 -1.6875 1.6875 C-1.130625 1.130625 -0.57375 0.57375 0 0 Z " fill="#0A0809" transform="translate(364,141)"/>
<path d="M0 0 C0 3.93656323 -1.27404693 4.69143789 -3.9375 7.5 C-7.12975923 10.84072686 -7.12975923 10.84072686 -9 15 C-11.0625 15.6875 -11.0625 15.6875 -13 16 C-10.73373703 11.88157527 -8.00485839 8.62861358 -4.8125 5.1875 C-4.34908203 4.68541016 -3.88566406 4.18332031 -3.40820312 3.66601562 C-2.27599703 2.44043171 -1.13853521 1.21970658 0 0 Z " fill="#0F0C0C" transform="translate(330,139)"/>
<path d="M0 0 C0.99 0.495 0.99 0.495 2 1 C3.31354232 6.32270191 3.2169457 11.68969147 2 17 C1.34 17.33 0.68 17.66 0 18 C0 12.06 0 6.12 0 0 Z " fill="#E0FAFC" transform="translate(687,80)"/>
<path d="M0 0 C0.66 0.33 1.32 0.66 2 1 C-0.35296542 6.33338829 -4.85195682 9.51924006 -10 12 C-10.99 11.67 -11.98 11.34 -13 11 C-12.22914063 10.45730469 -11.45828125 9.91460937 -10.6640625 9.35546875 C-9.66117188 8.64003906 -8.65828125 7.92460937 -7.625 7.1875 C-6.62726562 6.47980469 -5.62953125 5.77210938 -4.6015625 5.04296875 C-1.83319352 3.08757661 -1.83319352 3.08757661 0 0 Z " fill="#0C0A0B" transform="translate(565,181)"/>
<path d="M0 0 C2.03833424 1.2739589 4.03852126 2.61061923 6 4 C6 4.66 6 5.32 6 6 C7.65 6 9.3 6 11 6 C11 6.99 11 7.98 11 9 C8.03 8.505 8.03 8.505 5 8 C5 7.01 5 6.02 5 5 C3.02 5 1.04 5 -1 5 C-0.67 3.35 -0.34 1.7 0 0 Z " fill="#0976A8" transform="translate(658,101)"/>
<path d="M0 0 C-4.455 1.485 -4.455 1.485 -9 3 C-9 3.66 -9 4.32 -9 5 C-9.99 5.33 -10.98 5.66 -12 6 C-12.042721 4.33388095 -12.04063832 2.66617115 -12 1 C-9.22036907 -1.77963093 -3.39894022 -1.13298007 0 0 Z " fill="#1772A1" transform="translate(752,121)"/>
<path d="M0 0 C0.99 0.33 1.98 0.66 3 1 C1.58367866 2.10460959 0.16692736 3.20866788 -1.25 4.3125 C-2.03890625 4.92738281 -2.8278125 5.54226562 -3.640625 6.17578125 C-5.7462297 7.80379018 -7.86609343 9.40935863 -10 11 C-8.83412722 6.0450407 -5.83856832 3.97282007 -1.97265625 1.0390625 C-0.99619141 0.52472656 -0.99619141 0.52472656 0 0 Z " fill="#0E0A0B" transform="translate(511,122)"/>
<path d="M0 0 C4.16507217 0.54005376 6.54445439 1.83065101 9.8125 4.4375 C10.60269531 5.05496094 11.39289063 5.67242187 12.20703125 6.30859375 C12.79871094 6.86675781 13.39039063 7.42492187 14 8 C14 8.66 14 9.32 14 10 C11.02245105 8.6113673 8.48841335 6.98738657 5.875 5 C5.19179688 4.484375 4.50859375 3.96875 3.8046875 3.4375 C2 2 2 2 0 0 Z " fill="#0D0A0B" transform="translate(453,122)"/>
<path d="M0 0 C0 0.66 0 1.32 0 2 C0.66 2.33 1.32 2.66 2 3 C-2 3 -2 3 -4 2 C-4.66 4.64 -5.32 7.28 -6 10 C-6.66 10 -7.32 10 -8 10 C-7.30900988 3.91928698 -6.72220126 0 0 0 Z " fill="#1F78A6" transform="translate(747,148)"/>
<path d="M0 0 C0 4.10292897 -1.62801099 5.1527059 -4.375 8.125 C-5.18710937 9.01445312 -5.99921875 9.90390625 -6.8359375 10.8203125 C-9 13 -9 13 -11 14 C-9.42219077 10.28954753 -7.09296752 7.70093616 -4.375 4.75 C-3.55773437 3.85796875 -2.74046875 2.9659375 -1.8984375 2.046875 C-1.27195312 1.37140625 -0.64546875 0.6959375 0 0 Z " fill="#0D0A0B" transform="translate(342,125)"/>
<path d="M0 0 C0.66 0 1.32 0 2 0 C0.18690997 3.77727089 -1.9073259 7.37269822 -4 11 C-4.99 10.67 -5.98 10.34 -7 10 C-6.34 8.68 -5.68 7.36 -5 6 C-4.34 6 -3.68 6 -3 6 C-2.67 4.68 -2.34 3.36 -2 2 C-1.34 2 -0.68 2 0 2 C0 1.34 0 0.68 0 0 Z " fill="#DCF2F7" transform="translate(743,124)"/>
<path d="M0 0 C0.66 0.33 1.32 0.66 2 1 C1.01 2.98 0.02 4.96 -1 7 C-1.66 7 -2.32 7 -3 7 C-3.33 8.32 -3.66 9.64 -4 11 C-4.66 11 -5.32 11 -6 11 C-4.74194623 6.49197399 -3.09592835 3.5087188 0 0 Z " fill="#110E0F" transform="translate(499,134)"/>
<path d="M0 0 C0 3 0 3 -1.53125 4.82421875 C-2.1809375 5.43910156 -2.830625 6.05398437 -3.5 6.6875 C-4.1496875 7.31011719 -4.799375 7.93273437 -5.46875 8.57421875 C-5.9740625 9.04472656 -6.479375 9.51523438 -7 10 C-7.66 9.67 -8.32 9.34 -9 9 C-6.21000549 5.51250686 -3.74764169 2.49842779 0 0 Z " fill="#0C0A0A" transform="translate(397,128)"/>
<path d="M0 0 C4.82034262 0.41317222 6.90992611 2.38019915 10 6 C10 6.66 10 7.32 10 8 C6.28133515 6.76044505 4.67716114 4.81445146 2 2 C1.34 1.34 0.68 0.68 0 0 Z " fill="#0D0A0B" transform="translate(554,122)"/>
<path d="M0 0 C-1.34882814 4.04648443 -3.34826069 4.95502599 -7 7 C-7.99 6.67 -8.98 6.34 -10 6 C-8.71283353 4.99421411 -7.42011342 3.99553202 -6.125 3 C-5.40570313 2.443125 -4.68640625 1.88625 -3.9453125 1.3125 C-2 0 -2 0 0 0 Z " fill="#080606" transform="translate(467,208)"/>
<path d="M0 0 C0.66 0.33 1.32 0.66 2 1 C0.71372289 2.17260611 -0.57919783 3.3379283 -1.875 4.5 C-2.59429687 5.1496875 -3.31359375 5.799375 -4.0546875 6.46875 C-6 8 -6 8 -8 8 C-6.49776416 3.79373966 -3.71449966 2.26099979 0 0 Z " fill="#0B0A0B" transform="translate(211,122)"/>
<path d="M0 0 C0.66 0 1.32 0 2 0 C1.79375 0.7425 1.5875 1.485 1.375 2.25 C0.95591249 5.32330841 1.38050989 6.42786866 3 9 C0 8 0 8 -1.3125 5.625 C-1.539375 4.75875 -1.76625 3.8925 -2 3 C-1.34 2.01 -0.68 1.02 0 0 Z " fill="#130C0C" transform="translate(345,162)"/>
<path d="M0 0 C0.66 0 1.32 0 2 0 C1.67 3.63 1.34 7.26 1 11 C0.67 11 0.34 11 0 11 C-0.19491452 9.54263913 -0.38069358 8.08405407 -0.5625 6.625 C-0.66691406 5.81289062 -0.77132812 5.00078125 -0.87890625 4.1640625 C-1 2 -1 2 0 0 Z " fill="#DDF6FC" transform="translate(737,154)"/>
<path d="" fill="#FFFFFF" transform="translate(0,0)"/>
<path d="" fill="#FFFFFF" transform="translate(0,0)"/>
<path d="" fill="#FFFFFF" transform="translate(0,0)"/>
<path d="" fill="#FFFFFF" transform="translate(0,0)"/>
<path d="" fill="#FFFFFF" transform="translate(0,0)"/>
<path d="" fill="#FFFFFF" transform="translate(0,0)"/>
<path d="" fill="#FFFFFF" transform="translate(0,0)"/>
<path d="" fill="#FFFFFF" transform="translate(0,0)"/>
<path d="" fill="#FFFFFF" transform="translate(0,0)"/>
<path d="" fill="#FFFFFF" transform="translate(0,0)"/>
<path d="" fill="#FFFFFF" transform="translate(0,0)"/>
<path d="" fill="#FFFFFF" transform="translate(0,0)"/>
<path d="" fill="#FFFFFF" transform="translate(0,0)"/>
<path d="" fill="#FFFFFF" transform="translate(0,0)"/>
<path d="" fill="#FFFFFF" transform="translate(0,0)"/>
<path d="" fill="#FFFFFF" transform="translate(0,0)"/>
<path d="" fill="#FFFFFF" transform="translate(0,0)"/>
<path d="" fill="#FFFFFF" transform="translate(0,0)"/>
<path d="" fill="#FFFFFF" transform="translate(0,0)"/>
<path d="" fill="#FFFFFF" transform="translate(0,0)"/>
<path d="" fill="#FFFFFF" transform="translate(0,0)"/>
<path d="" fill="#FFFFFF" transform="translate(0,0)"/>
<path d="" fill="#FFFFFF" transform="translate(0,0)"/>
<path d="" fill="#FFFFFF" transform="translate(0,0)"/>
<path d="" fill="#FFFFFF" transform="translate(0,0)"/>
<path d="" fill="#FFFFFF" transform="translate(0,0)"/>
<path d="" fill="#FFFFFF" transform="translate(0,0)"/>
<path d="" fill="#FFFFFF" transform="translate(0,0)"/>
<path d="" fill="#FFFFFF" transform="translate(0,0)"/>
<path d="" fill="#FFFFFF" transform="translate(0,0)"/>
<path d="" fill="#FFFFFF" transform="translate(0,0)"/>
<path d="" fill="#FFFFFF" transform="translate(0,0)"/>
<path d="" fill="#FFFFFF" transform="translate(0,0)"/>
<path d="" fill="#FFFFFF" transform="translate(0,0)"/>
<path d="" fill="#FFFFFF" transform="translate(0,0)"/>
<path d="" fill="#FFFFFF" transform="translate(0,0)"/>
<path d="" fill="#FFFFFF" transform="translate(0,0)"/>
<path d="" fill="#FFFFFF" transform="translate(0,0)"/>
<path d="" fill="#FFFFFF" transform="translate(0,0)"/>
<path d="" fill="#FFFFFF" transform="translate(0,0)"/>
<path d="" fill="#FFFFFF" transform="translate(0,0)"/>
<path d="" fill="#FFFFFF" transform="translate(0,0)"/>
<path d="" fill="#FFFFFF" transform="translate(0,0)"/>
<path d="" fill="#FFFFFF" transform="translate(0,0)"/>
<path d="" fill="#FFFFFF" transform="translate(0,0)"/>
<path d="" fill="#FFFFFF" transform="translate(0,0)"/>
<path d="" fill="#FFFFFF" transform="translate(0,0)"/>
<path d="" fill="#FFFFFF" transform="translate(0,0)"/>
<path d="" fill="#FFFFFF" transform="translate(0,0)"/>
<path d="" fill="#FFFFFF" transform="translate(0,0)"/>
<path d="" fill="#FFFFFF" transform="translate(0,0)"/>
<path d="" fill="#FFFFFF" transform="translate(0,0)"/>
</svg>
